<svg width="20" height="20" viewBox="0 0 20 20" fill="none" xmlns="http://www.w3.org/2000/svg">
<path d="M7.76567 6.83135L5.89067 12.6813C5.87954 12.7139 5.87629 12.7485 5.88117 12.7826C5.88606 12.8166 5.89895 12.8489 5.91877 12.877C5.9386 12.9051 5.9648 12.928 5.99523 12.944C6.02565 12.96 6.05943 12.9685 6.09379 12.9688H6.61879C6.66565 12.9687 6.71121 12.9534 6.74866 12.9253C6.78612 12.8971 6.81346 12.8576 6.82661 12.8126L7.12036 11.8751H9.68754L9.65161 11.8173L9.97348 12.8126C9.98663 12.8576 10.014 12.8971 10.0514 12.9253C10.0889 12.9534 10.1344 12.9687 10.1813 12.9688H10.7063C10.7407 12.969 10.7746 12.9611 10.8053 12.9456C10.836 12.9301 10.8626 12.9076 10.8829 12.8798C10.9032 12.852 10.9166 12.8199 10.922 12.7859C10.9275 12.7519 10.9247 12.7172 10.9141 12.6845L9.03911 6.83447C9.02574 6.78962 8.99834 6.75025 8.96093 6.72212C8.92353 6.694 8.87809 6.67861 8.83129 6.67822H7.96879C7.92314 6.67915 7.87893 6.69445 7.84247 6.72194C7.806 6.74943 7.77913 6.78771 7.76567 6.83135ZM7.43286 10.9376L8.40004 7.92666L9.37504 10.9376H7.43286Z" fill="white"/>
<path d="M13.0625 6.67969H12.5625C12.4417 6.67969 12.3438 6.77763 12.3438 6.89844V12.7484C12.3438 12.8692 12.4417 12.9672 12.5625 12.9672H13.0625C13.1833 12.9672 13.2812 12.8692 13.2812 12.7484V6.89844C13.2812 6.77763 13.1833 6.67969 13.0625 6.67969Z" fill="white"/>
<path d="M10.5094 15.3125H5.9625C5.62435 15.3125 5.30005 15.1782 5.06094 14.9391C4.82183 14.7 4.6875 14.3757 4.6875 14.0375V5.9625C4.6875 5.62435 4.82183 5.30005 5.06094 5.06094C5.30005 4.82183 5.62435 4.6875 5.9625 4.6875H14.0375C14.3757 4.6875 14.7 4.82183 14.9391 5.06094C15.1782 5.30005 15.3125 5.62435 15.3125 5.9625V10C15.3154 10.0852 15.3518 10.1659 15.4138 10.2244C15.4758 10.283 15.5585 10.3146 15.6438 10.3125C15.9098 10.3117 16.1724 10.3727 16.4109 10.4906C16.4604 10.516 16.5157 10.5282 16.5713 10.5258C16.6269 10.5235 16.6809 10.5068 16.7281 10.4774C16.7754 10.448 16.8141 10.4068 16.8407 10.3579C16.8673 10.309 16.8807 10.2541 16.8797 10.1984V5.9625C16.8797 5.58948 16.8061 5.22012 16.6632 4.87556C16.5204 4.53099 16.3109 4.21798 16.0469 3.95443C15.783 3.69088 15.4696 3.48197 15.1248 3.33965C14.78 3.19733 14.4105 3.12439 14.0375 3.125H5.9625C5.20995 3.125 4.48822 3.42395 3.95608 3.95609C3.42395 4.48822 3.125 5.20995 3.125 5.9625V14.0375C3.125 14.7901 3.42395 15.5118 3.95608 16.0439C4.48822 16.5761 5.20995 16.875 5.9625 16.875H11.1656C11.2296 16.8751 11.2921 16.8562 11.3453 16.8208C11.3985 16.7853 11.44 16.7349 11.4646 16.6759C11.4892 16.6169 11.4957 16.5519 11.4834 16.4892C11.4711 16.4264 11.4404 16.3688 11.3953 16.3234C11.1522 16.1004 10.9552 15.8318 10.8156 15.5328C10.7933 15.4692 10.7519 15.4139 10.6971 15.3745C10.6424 15.3351 10.5768 15.3135 10.5094 15.3125Z" fill="white"/>
<path d="M17.4578 15.9064L18.8734 15.3486C18.9026 15.3371 18.9276 15.3171 18.9452 15.2912C18.9628 15.2653 18.9723 15.2347 18.9723 15.2033C18.9723 15.172 18.9628 15.1414 18.9452 15.1155C18.9276 15.0895 18.9026 15.0695 18.8734 15.058L17.4578 14.5002C17.2072 14.4011 16.9796 14.2517 16.7891 14.0611C16.5985 13.8706 16.4491 13.643 16.35 13.3924L15.7922 11.9861C15.7806 11.9571 15.7606 11.9321 15.7347 11.9146C15.7088 11.897 15.6782 11.8877 15.6469 11.8877C15.6156 11.8877 15.585 11.897 15.5591 11.9146C15.5332 11.9321 15.5131 11.9571 15.5016 11.9861L14.9438 13.3924C14.8449 13.6431 14.6956 13.8709 14.505 14.0614C14.3144 14.252 14.0867 14.4014 13.8359 14.5002L12.4297 15.058C12.4005 15.0695 12.3755 15.0895 12.3579 15.1155C12.3403 15.1414 12.3309 15.172 12.3309 15.2033C12.3309 15.2347 12.3403 15.2653 12.3579 15.2912C12.3755 15.3171 12.4005 15.3371 12.4297 15.3486L13.8359 15.9064C14.0867 16.0053 14.3144 16.1546 14.505 16.3452C14.6956 16.5358 14.8449 16.7635 14.9438 17.0143L15.5016 18.4205C15.5129 18.4499 15.5328 18.4751 15.5588 18.493C15.5847 18.5108 15.6154 18.5204 15.6469 18.5205C15.6784 18.5204 15.7091 18.5108 15.735 18.493C15.7609 18.4751 15.7809 18.4499 15.7922 18.4205L16.35 17.0143C16.4491 16.7637 16.5985 16.5361 16.7891 16.3455C16.9796 16.155 17.2072 16.0055 17.4578 15.9064Z" fill="white"/>
</svg>
