<svg width="48" height="48" viewBox="0 0 48 48" fill="none" xmlns="http://www.w3.org/2000/svg">
<rect width="48" height="48" rx="12" fill="url(#paint0_linear_83_909)"/>
<rect x="0.25" y="0.25" width="47.5" height="47.5" rx="11.75" stroke="white" stroke-opacity="0.5" stroke-width="0.5"/>
<path d="M21.7656 20.8313L19.8906 26.6813C19.8795 26.7139 19.8762 26.7485 19.8811 26.7826C19.886 26.8166 19.8989 26.8489 19.9187 26.877C19.9385 26.9051 19.9647 26.928 19.9952 26.944C20.0256 26.96 20.0594 26.9685 20.0937 26.9688H20.6187C20.6656 26.9687 20.7111 26.9534 20.7486 26.9253C20.7861 26.8971 20.8134 26.8576 20.8265 26.8126L21.1203 25.8751H23.6875L23.6515 25.8173L23.9734 26.8126C23.9866 26.8576 24.0139 26.8971 24.0514 26.9253C24.0888 26.9534 24.1344 26.9687 24.1812 26.9688H24.7062C24.7406 26.969 24.7746 26.9611 24.8053 26.9456C24.836 26.9301 24.8626 26.9076 24.8829 26.8798C24.9032 26.852 24.9166 26.8199 24.922 26.7859C24.9274 26.7519 24.9247 26.7172 24.914 26.6845L23.039 20.8345C23.0257 20.7896 22.9983 20.7502 22.9609 20.7221C22.9235 20.694 22.878 20.6786 22.8312 20.6782H21.9687C21.9231 20.6792 21.8789 20.6944 21.8424 20.7219C21.8059 20.7494 21.7791 20.7877 21.7656 20.8313ZM21.4328 24.9376L22.4 21.9267L23.375 24.9376H21.4328Z" fill="white"/>
<path d="M27.0625 20.6797H26.5625C26.4417 20.6797 26.3438 20.7776 26.3438 20.8984V26.7484C26.3438 26.8692 26.4417 26.9672 26.5625 26.9672H27.0625C27.1833 26.9672 27.2812 26.8692 27.2812 26.7484V20.8984C27.2812 20.7776 27.1833 20.6797 27.0625 20.6797Z" fill="white"/>
<path d="M24.5094 29.3125H19.9625C19.6243 29.3125 19.3 29.1782 19.0609 28.9391C18.8218 28.7 18.6875 28.3757 18.6875 28.0375V19.9625C18.6875 19.6244 18.8218 19.3001 19.0609 19.0609C19.3 18.8218 19.6243 18.6875 19.9625 18.6875H28.0375C28.3757 18.6875 28.7 18.8218 28.9391 19.0609C29.1782 19.3001 29.3125 19.6244 29.3125 19.9625V24C29.3154 24.0852 29.3518 24.1659 29.4138 24.2244C29.4758 24.283 29.5585 24.3146 29.6438 24.3125C29.9098 24.3117 30.1724 24.3727 30.4109 24.4906C30.4604 24.516 30.5157 24.5282 30.5713 24.5258C30.6269 24.5235 30.6809 24.5068 30.7281 24.4774C30.7754 24.448 30.8141 24.4068 30.8407 24.3579C30.8673 24.309 30.8807 24.2541 30.8797 24.1984V19.9625C30.8797 19.5895 30.8061 19.2201 30.6632 18.8756C30.5204 18.531 30.3109 18.218 30.0469 17.9544C29.783 17.6909 29.4696 17.482 29.1248 17.3396C28.78 17.1973 28.4105 17.1244 28.0375 17.125H19.9625C19.2099 17.125 18.4882 17.424 17.9561 17.9561C17.424 18.4882 17.125 19.21 17.125 19.9625V28.0375C17.125 28.7901 17.424 29.5118 17.9561 30.0439C18.4882 30.5761 19.2099 30.875 19.9625 30.875H25.1656C25.2296 30.8751 25.2921 30.8562 25.3453 30.8208C25.3985 30.7853 25.44 30.7349 25.4646 30.6759C25.4892 30.6169 25.4957 30.5519 25.4834 30.4892C25.4711 30.4264 25.4404 30.3688 25.3953 30.3234C25.1522 30.1004 24.9552 29.8318 24.8156 29.5328C24.7933 29.4692 24.7519 29.4139 24.6971 29.3745C24.6424 29.3351 24.5768 29.3135 24.5094 29.3125Z" fill="white"/>
<path d="M31.4578 29.9062L32.8734 29.3484C32.9025 29.3369 32.9275 29.3169 32.9452 29.2909C32.9628 29.265 32.9722 29.2344 32.9722 29.2031C32.9722 29.1717 32.9628 29.1411 32.9452 29.1152C32.9275 29.0893 32.9025 29.0693 32.8734 29.0578L31.4578 28.5C31.2072 28.4009 30.9796 28.2514 30.789 28.0609C30.5985 27.8703 30.449 27.6427 30.3499 27.3921L29.7921 25.9859C29.7806 25.9568 29.7605 25.9319 29.7346 25.9143C29.7087 25.8968 29.6781 25.8874 29.6468 25.8875C29.6155 25.8874 29.5849 25.8968 29.559 25.9143C29.5331 25.9319 29.5131 25.9568 29.5015 25.9859L28.9437 27.3921C28.8449 27.6429 28.6955 27.8706 28.5049 28.0612C28.3144 28.2518 28.0866 28.4011 27.8359 28.5L26.4296 29.0578C26.4005 29.0693 26.3755 29.0893 26.3579 29.1152C26.3402 29.1411 26.3308 29.1717 26.3308 29.2031C26.3308 29.2344 26.3402 29.265 26.3579 29.2909C26.3755 29.3169 26.4005 29.3369 26.4296 29.3484L27.8359 29.9062C28.0866 30.005 28.3144 30.1544 28.5049 30.345C28.6955 30.5355 28.8449 30.7633 28.9437 31.014L29.5015 32.4203C29.5128 32.4496 29.5328 32.4749 29.5587 32.4927C29.5846 32.5106 29.6153 32.5202 29.6468 32.5203C29.6783 32.5202 29.709 32.5106 29.7349 32.4927C29.7609 32.4749 29.7808 32.4496 29.7921 32.4203L30.3499 31.014C30.449 30.7634 30.5985 30.5358 30.789 30.3453C30.9796 30.1547 31.2072 30.0053 31.4578 29.9062Z" fill="white"/>
<defs>
<linearGradient id="paint0_linear_83_909" x1="55" y1="22" x2="6.69781" y2="-7.24915" gradientUnits="userSpaceOnUse">
<stop stop-color="#41D1F2" stop-opacity="0.72"/>
<stop offset="1" stop-color="#CF34D2" stop-opacity="0.72"/>
</linearGradient>
</defs>
</svg>
