<svg width="32" height="32" viewBox="0 0 32 32" fill="none" xmlns="http://www.w3.org/2000/svg">
<g clip-path="url(#clip0_228_1128)">
<path d="M25.4375 0H6.5625C2.94394 0 0 2.94394 0 6.5625V25.4375C0 29.0561 2.94394 32 6.5625 32H25.4375C29.0561 32 32 29.0561 32 25.4375V6.5625C32 2.94394 29.0561 0 25.4375 0ZM16.9177 6.33025C18.3468 4.44669 20.3335 4.4375 20.3335 4.4375C20.3335 4.4375 20.629 6.20831 19.2093 7.91425C17.6934 9.73581 15.9704 9.43769 15.9704 9.43769C15.9704 9.43769 15.6469 8.00513 16.9177 6.33025ZM20.0506 26.1556C18.7797 26.1556 17.7919 25.2992 16.4529 25.2992C15.0885 25.2992 13.7344 26.1875 12.8526 26.1875C10.3262 26.1875 7.13444 20.7185 7.13444 16.3224C7.13444 11.9971 9.83606 9.72819 12.3701 9.72819C14.0174 9.72819 15.2958 10.6782 16.1522 10.6782C16.8874 10.6782 18.2518 9.66763 20.0279 9.66763C23.0851 9.66763 24.2877 11.843 24.2877 11.843C24.2877 11.843 21.9355 13.0456 21.9355 15.9637C21.9355 19.2557 24.8657 20.3902 24.8657 20.3902C24.8657 20.3902 22.8172 26.1556 20.0506 26.1556Z" fill="white"/>
</g>
<defs>
<clipPath id="clip0_228_1128">
<rect width="32" height="32" rx="8" fill="white"/>
</clipPath>
</defs>
</svg>
