<svg width="24" height="24" viewBox="0 0 24 24" fill="none" xmlns="http://www.w3.org/2000/svg">
<rect width="24" height="24" rx="4" fill="#EDF2FA" fill-opacity="0.4"/>
<path fill-rule="evenodd" clip-rule="evenodd" d="M8.27498 4.89165C8.39202 5.00883 8.45776 5.16769 8.45776 5.33331C8.45776 5.49894 8.39202 5.65779 8.27498 5.77498L6.84165 7.20831H14.5C15.7708 7.20831 16.9896 7.71315 17.8882 8.61176C18.7868 9.51037 19.2916 10.7292 19.2916 12C19.2916 13.2708 18.7868 14.4896 17.8882 15.3882C16.9896 16.2868 15.7708 16.7916 14.5 16.7916H8.66665C8.50089 16.7916 8.34191 16.7258 8.2247 16.6086C8.10749 16.4914 8.04165 16.3324 8.04165 16.1666C8.04165 16.0009 8.10749 15.8419 8.2247 15.7247C8.34191 15.6075 8.50089 15.5416 8.66665 15.5416H14.5C15.4393 15.5416 16.3401 15.1685 17.0043 14.5043C17.6685 13.8401 18.0416 12.9393 18.0416 12C18.0416 11.0607 17.6685 10.1598 17.0043 9.49564C16.3401 8.83145 15.4393 8.45831 14.5 8.45831H6.84165L8.27498 9.89165C8.33639 9.94886 8.38564 10.0179 8.4198 10.0945C8.45396 10.1712 8.47233 10.254 8.47381 10.3379C8.47529 10.4218 8.45985 10.5052 8.42842 10.583C8.39698 10.6608 8.35019 10.7315 8.29084 10.7908C8.2315 10.8502 8.1608 10.897 8.08298 10.9284C8.00515 10.9598 7.9218 10.9753 7.83788 10.9738C7.75396 10.9723 7.6712 10.954 7.59453 10.9198C7.51786 10.8856 7.44886 10.8364 7.39165 10.775L4.89165 8.27498C4.7746 8.15779 4.70886 7.99894 4.70886 7.83331C4.70886 7.66769 4.7746 7.50883 4.89165 7.39165L7.39165 4.89165C7.50883 4.7746 7.66769 4.70886 7.83331 4.70886C7.99894 4.70886 8.15779 4.7746 8.27498 4.89165Z" fill="white"/>
</svg>
