<svg width="24" height="24" viewBox="0 0 24 24" fill="none" xmlns="http://www.w3.org/2000/svg">
<path d="M19.0333 6H4.96667C4.13791 6 3.46667 6.6754 3.46667 7.5V16.5C3.46667 17.3295 4.14284 18 4.96667 18H19.0333C19.8552 18 20.5333 17.3323 20.5333 16.5V7.5C20.5333 6.67687 19.8648 6 19.0333 6ZM18.8233 7L13.0607 12.7322C12.7773 13.0156 12.4007 13.1716 12 13.1716C11.5993 13.1716 11.2227 13.0155 10.9384 12.7313L5.17674 7H18.8233ZM4.46667 16.2965V7.70417L8.78794 12.0027L4.46667 16.2965ZM5.17737 17L9.49694 12.7079L10.2322 13.4393C10.7044 13.9115 11.3322 14.1716 12 14.1716C12.6678 14.1716 13.2956 13.9115 13.7668 13.4403L14.5031 12.7079L18.8226 17H5.17737ZM19.5333 16.2965L15.2121 12.0027L19.5333 7.70417V16.2965Z" fill="white"/>
</svg>
