<svg width="19" height="13" viewBox="0 0 19 13" fill="none" xmlns="http://www.w3.org/2000/svg">
<path d="M9.5 10.4C10.5795 10.4 11.4972 10.0208 12.2528 9.2625C13.0085 8.50417 13.3864 7.58333 13.3864 6.5C13.3864 5.41667 13.0085 4.49583 12.2528 3.7375C11.4972 2.97917 10.5795 2.6 9.5 2.6C8.42045 2.6 7.50284 2.97917 6.74716 3.7375C5.99148 4.49583 5.61364 5.41667 5.61364 6.5C5.61364 7.58333 5.99148 8.50417 6.74716 9.2625C7.50284 10.0208 8.42045 10.4 9.5 10.4ZM9.5 8.84C8.85227 8.84 8.3017 8.6125 7.8483 8.1575C7.39489 7.7025 7.16818 7.15 7.16818 6.5C7.16818 5.85 7.39489 5.2975 7.8483 4.8425C8.3017 4.3875 8.85227 4.16 9.5 4.16C10.1477 4.16 10.6983 4.3875 11.1517 4.8425C11.6051 5.2975 11.8318 5.85 11.8318 6.5C11.8318 7.15 11.6051 7.7025 11.1517 8.1575C10.6983 8.6125 10.1477 8.84 9.5 8.84ZM9.5 13C7.39848 13 5.48409 12.4114 3.75682 11.2342C2.02955 10.0569 0.777273 8.47889 0 6.5C0.777273 4.52111 2.02955 2.94306 3.75682 1.76583C5.48409 0.588611 7.39848 0 9.5 0C11.6015 0 13.5159 0.588611 15.2432 1.76583C16.9705 2.94306 18.2227 4.52111 19 6.5C18.2227 8.47889 16.9705 10.0569 15.2432 11.2342C13.5159 12.4114 11.6015 13 9.5 13ZM9.5 11.2667C11.1265 11.2667 12.6199 10.8369 13.9801 9.9775C15.3403 9.11806 16.3803 7.95889 17.1 6.5C16.3803 5.04111 15.3403 3.88194 13.9801 3.0225C12.6199 2.16306 11.1265 1.73333 9.5 1.73333C7.87348 1.73333 6.38011 2.16306 5.01989 3.0225C3.65966 3.88194 2.6197 5.04111 1.9 6.5C2.6197 7.95889 3.65966 9.11806 5.01989 9.9775C6.38011 10.8369 7.87348 11.2667 9.5 11.2667Z" fill="white"/>
</svg>
