<svg width="20" height="20" viewBox="0 0 20 20" fill="none" xmlns="http://www.w3.org/2000/svg">
<g clip-path="url(#clip0_76_3195)">
<path d="M10.5 20.0142C10.2437 20.0142 9.99669 19.9214 9.80414 19.7527C9.07697 19.1169 8.37592 18.5194 7.75738 17.9923L7.75421 17.9896C5.94079 16.4442 4.37483 15.1096 3.28527 13.795C2.06732 12.3253 1.5 10.9318 1.5 9.40952C1.5 7.9305 2.00716 6.56598 2.92794 5.56719C3.85972 4.55659 5.13824 4 6.52842 4C7.56746 4 8.519 4.3285 9.3566 4.97629C9.77928 5.30324 10.1624 5.70342 10.5 6.17019C10.8377 5.70342 11.2207 5.30324 11.6435 4.97629C12.4811 4.3285 13.4326 4 14.4717 4C15.8617 4 17.1404 4.55659 18.0722 5.56719C18.9929 6.56598 19.5 7.9305 19.5 9.40952C19.5 10.9318 18.9328 12.3253 17.7148 13.7948C16.6252 15.1096 15.0594 16.4441 13.2463 17.9893C12.6266 18.5172 11.9245 19.1156 11.1957 19.753C11.0031 19.9215 10.7559 20.0143 10.5 20.0142ZM6.52842 5.0544C5.43626 5.0544 4.43294 5.49031 3.70303 6.28185C2.96229 7.08538 2.55426 8.1961 2.55426 9.40952C2.55426 10.6898 3.0301 11.8349 4.09702 13.1222C5.12822 14.3665 6.66205 15.6736 8.438 17.1872L8.44127 17.1899C9.06213 17.719 9.76596 18.3189 10.4985 18.9594C11.2354 18.3176 11.9403 17.7168 12.5624 17.1869C14.3382 15.6734 15.8719 14.3665 16.9031 13.1222C17.9699 11.8349 18.4457 10.6898 18.4457 9.40952C18.4457 8.19607 18.0377 7.08534 17.2969 6.28185C16.5672 5.49031 15.5637 5.0544 14.4717 5.0544C13.6716 5.0544 12.937 5.30876 12.2884 5.81026C11.7104 6.25741 11.3078 6.82265 11.0717 7.21816C10.9503 7.42154 10.7366 7.54293 10.5 7.54293C10.2633 7.54293 10.0497 7.42154 9.92827 7.21816C9.69237 6.82265 9.2897 6.25741 8.71152 5.81026C8.06296 5.30876 7.32837 5.0544 6.52842 5.0544Z" fill="white"/>
</g>
<defs>
<clipPath id="clip0_76_3195">
<rect width="20" height="20" fill="white"/>
</clipPath>
</defs>
</svg>
