<svg width="32" height="32" viewBox="0 0 32 32" fill="none" xmlns="http://www.w3.org/2000/svg">
<rect width="32" height="32" rx="8" fill="white"/>
<path d="M5 16C5 9.9346 9.9346 5 16 5C18.4496 5 20.7682 5.78812 22.7052 7.2792L20.149 10.5997C18.9514 9.67783 17.5166 9.19048 16 9.19048C12.2452 9.19048 9.19048 12.2452 9.19048 16C9.19048 19.7548 12.2452 22.8095 16 22.8095C19.0242 22.8095 21.5941 20.8282 22.4797 18.0952H16V13.9048H27V16C27 22.0654 22.0654 27 16 27C9.9346 27 5 22.0654 5 16Z" fill="#E0701D"/>
</svg>
