<svg width="15" height="18" viewBox="0 0 15 18" fill="none" xmlns="http://www.w3.org/2000/svg">
<path d="M11.7643 5.95929H4.14V4.33929C4.14114 3.63496 4.38553 2.95264 4.83182 2.40775C5.27811 1.86286 5.89891 1.48885 6.58921 1.34897C7.27951 1.2091 7.99694 1.31195 8.62014 1.64013C9.24334 1.96831 9.73406 2.50167 10.0093 3.15C10.1507 3.47786 10.5236 3.63214 10.8514 3.49072C11.1793 3.35572 11.3336 2.97643 11.1921 2.64857C10.8601 1.86275 10.3036 1.19232 9.59232 0.721212C8.88108 0.250101 8.04669 -0.000768623 7.19357 1.76902e-06C4.80214 1.76902e-06 2.85429 1.94786 2.85429 4.33929V5.95929H2.57143C1.15071 5.95929 0 7.11 0 8.53072V15.4286C0 16.8493 1.15071 18 2.57143 18H11.7643C13.185 18 14.3357 16.8493 14.3357 15.4286V8.53072C14.3357 7.11643 13.185 5.95929 11.7643 5.95929ZM13.05 15.4286C13.05 16.1357 12.4714 16.7143 11.7643 16.7143H2.57143C1.86429 16.7143 1.28571 16.1357 1.28571 15.4286V8.53072C1.28571 7.82357 1.86429 7.245 2.57143 7.245H11.7643C12.4714 7.245 13.05 7.82357 13.05 8.53072V15.4286ZM8.325 11.7964C8.325 12.195 8.11929 12.555 7.81071 12.7607V14.3357C7.81071 14.6893 7.52143 14.9786 7.16786 14.9786C6.81429 14.9786 6.525 14.6893 6.525 14.3357V12.7607C6.21643 12.555 6.01071 12.195 6.01071 11.7964C6.01071 11.4895 6.13263 11.1952 6.34963 10.9782C6.56664 10.7612 6.86096 10.6393 7.16786 10.6393C7.47475 10.6393 7.76907 10.7612 7.98608 10.9782C8.20309 11.1952 8.325 11.4895 8.325 11.7964Z" fill="white"/>
</svg>
