<svg width="20" height="20" viewBox="0 0 20 20" fill="none" xmlns="http://www.w3.org/2000/svg">
<path d="M13.6375 18.7497H6.36249C5.53978 18.7803 4.73824 18.4849 4.13204 17.9279C3.52584 17.3708 3.16394 16.5971 3.12499 15.7747V11.8747C3.12499 11.709 3.19084 11.55 3.30805 11.4328C3.42526 11.3156 3.58423 11.2497 3.74999 11.2497C3.91575 11.2497 4.07473 11.3156 4.19194 11.4328C4.30915 11.55 4.37499 11.709 4.37499 11.8747V15.7747C4.41341 16.2656 4.64339 16.7217 5.01527 17.0445C5.38715 17.3672 5.87106 17.5308 6.36249 17.4997H13.6375C14.1289 17.5308 14.6128 17.3672 14.9847 17.0445C15.3566 16.7217 15.5866 16.2656 15.625 15.7747V11.8747C15.625 11.709 15.6908 11.55 15.8081 11.4328C15.9253 11.3156 16.0842 11.2497 16.25 11.2497C16.4158 11.2497 16.5747 11.3156 16.6919 11.4328C16.8091 11.55 16.875 11.709 16.875 11.8747V15.7747C16.836 16.5971 16.4742 17.3708 15.8679 17.9279C15.2617 18.4849 14.4602 18.7803 13.6375 18.7497ZM18.5687 10.4435C18.6273 10.3854 18.6738 10.3162 18.7056 10.2401C18.7373 10.1639 18.7536 10.0822 18.7536 9.99972C18.7536 9.91721 18.7373 9.83552 18.7056 9.75936C18.6738 9.6832 18.6273 9.61407 18.5687 9.55597L10.4437 1.43097C10.3856 1.37239 10.3165 1.32589 10.2404 1.29416C10.1642 1.26243 10.0825 1.24609 9.99999 1.24609C9.91749 1.24609 9.8358 1.26243 9.75963 1.29416C9.68347 1.32589 9.61435 1.37239 9.55624 1.43097L1.43124 9.55597C1.31355 9.67366 1.24744 9.83328 1.24744 9.99972C1.24744 10.1662 1.31355 10.3258 1.43124 10.4435C1.54893 10.5612 1.70856 10.6273 1.87499 10.6273C2.04143 10.6273 2.20105 10.5612 2.31874 10.4435L9.99999 2.75597L17.6812 10.4435C17.7393 10.502 17.8085 10.5485 17.8846 10.5803C17.9608 10.612 18.0425 10.6283 18.125 10.6283C18.2075 10.6283 18.2892 10.612 18.3654 10.5803C18.4415 10.5485 18.5106 10.502 18.5687 10.4435Z" fill="white"/>
</svg>
