<svg width="38" height="41" viewBox="0 0 38 41" fill="none" xmlns="http://www.w3.org/2000/svg">
<rect y="4.5" width="36" height="36" rx="10.5" fill="white" fill-opacity="0.2"/>
<rect x="0.25" y="4.75" width="35.5" height="35.5" rx="10.25" stroke="white" stroke-opacity="0.5" stroke-width="0.5"/>
<path d="M19.4756 14.8022C19.3451 14.8022 19.2199 14.7503 19.1276 14.658C19.0353 14.5657 18.9835 14.4405 18.9835 14.31V12.6562C18.9835 12.1139 18.5415 11.6719 17.9991 11.6719C17.4567 11.6719 17.0147 12.1139 17.0147 12.6562V14.31C17.0147 14.4405 16.9629 14.5657 16.8706 14.658C16.7782 14.7503 16.6531 14.8022 16.5225 14.8022C16.392 14.8022 16.2668 14.7503 16.1745 14.658C16.0822 14.5657 16.0303 14.4405 16.0303 14.31V12.6562C16.0303 11.5705 16.9133 10.6875 17.9991 10.6875C19.0849 10.6875 19.9678 11.5705 19.9678 12.6562V14.31C19.9678 14.4405 19.916 14.5657 19.8237 14.658C19.7314 14.7503 19.6062 14.8022 19.4756 14.8022ZM17.9991 34.3125C16.0992 34.3125 14.5538 32.767 14.5538 30.8672C14.5538 30.7367 14.6056 30.6115 14.6979 30.5192C14.7902 30.4269 14.9154 30.375 15.046 30.375C15.1765 30.375 15.3017 30.4269 15.394 30.5192C15.4863 30.6115 15.5381 30.7367 15.5381 30.8672C15.5381 32.2237 16.6426 33.3281 17.9991 33.3281C19.3556 33.3281 20.46 32.2237 20.46 30.8672C20.46 30.7367 20.5119 30.6115 20.6042 30.5192C20.6965 30.4269 20.8217 30.375 20.9522 30.375C21.0827 30.375 21.2079 30.4269 21.3002 30.5192C21.3925 30.6115 21.4444 30.7367 21.4444 30.8672C21.4444 32.767 19.8989 34.3125 17.9991 34.3125Z" fill="white"/>
<path d="M26.3662 31.3594H9.63185C9.3305 31.3583 9.03667 31.2652 8.78972 31.0925C8.54276 30.9198 8.35448 30.6758 8.25007 30.3931C8.14567 30.1104 8.13014 29.8026 8.20557 29.5108C8.28099 29.219 8.44376 28.9573 8.67208 28.7606C9.43564 28.1179 10.0494 27.3159 10.4702 26.4109C10.8911 25.5059 11.1089 24.5198 11.1084 23.5218V20.5312C11.1084 16.7316 14.1993 13.6406 17.999 13.6406C21.7987 13.6406 24.8897 16.7316 24.8897 20.5312V23.5218C24.8897 25.5427 25.7746 27.4494 27.3181 28.7537C27.5491 28.9491 27.7145 29.2107 27.7921 29.5031C27.8696 29.7955 27.8555 30.1047 27.7517 30.3888C27.6479 30.673 27.4594 30.9184 27.2116 31.092C26.9638 31.2656 26.6687 31.3589 26.3662 31.3594ZM17.999 14.625C14.7417 14.625 12.0928 17.274 12.0928 20.5312V23.5218C12.0939 24.6613 11.8459 25.7873 11.3662 26.821C10.8866 27.8546 10.1868 28.7709 9.31586 29.5058C9.23852 29.5707 9.18301 29.6578 9.15686 29.7554C9.13072 29.8529 9.13519 29.9561 9.16969 30.051C9.20419 30.1459 9.26703 30.2279 9.34971 30.2858C9.43238 30.3438 9.53088 30.3749 9.63185 30.375H26.3662C26.4668 30.375 26.565 30.3442 26.6476 30.2867C26.7302 30.2291 26.7931 30.1477 26.828 30.0533C26.8628 29.9589 26.8679 29.8561 26.8426 29.7588C26.8172 29.6614 26.7626 29.5741 26.6861 29.5088C25.8144 28.7737 25.1139 27.857 24.6336 26.8228C24.1532 25.7887 23.9047 24.662 23.9053 23.5218V20.5312C23.9053 17.274 21.2563 14.625 17.999 14.625Z" fill="white"/>
<rect x="23.625" width="13.5" height="13.5" rx="6.75" fill="white"/>
<path d="M31.0243 9.25H30.2465V6.14856C30.2465 6.04529 30.2476 5.94202 30.2498 5.83875C30.252 5.73547 30.2542 5.6344 30.2563 5.53552C30.2607 5.43665 30.2662 5.34216 30.2728 5.25208C30.2267 5.30261 30.1696 5.35754 30.1014 5.41687C30.0355 5.4762 29.9652 5.53772 29.8905 5.60144L29.3368 6.04309L28.9479 5.552L30.3783 4.4314H31.0243V9.25Z" fill="url(#paint0_linear_153_611)"/>
<defs>
<linearGradient id="paint0_linear_153_611" x1="23.8458" y1="2.25" x2="24.9809" y2="12.4005" gradientUnits="userSpaceOnUse">
<stop stop-color="#FFCB59"/>
<stop offset="0.259005" stop-color="#F6A652"/>
<stop offset="1" stop-color="#DA610F"/>
</linearGradient>
</defs>
</svg>
