<svg width="21" height="21" viewBox="0 0 21 21" fill="none" xmlns="http://www.w3.org/2000/svg">
<path d="M17.4624 1.92H15.36V0.48C15.36 0.352696 15.3094 0.230606 15.2194 0.140589C15.1294 0.0505714 15.0073 0 14.88 0C14.7527 0 14.6306 0.0505714 14.5406 0.140589C14.4506 0.230606 14.4 0.352696 14.4 0.48V1.92H5.76V0.48C5.76 0.352696 5.70943 0.230606 5.61941 0.140589C5.52939 0.0505714 5.4073 0 5.28 0C5.1527 0 5.03061 0.0505714 4.94059 0.140589C4.85057 0.230606 4.8 0.352696 4.8 0.48V1.92H2.6976C1.98215 1.92 1.29601 2.20421 0.790109 2.71011C0.284211 3.21601 0 3.90215 0 4.6176V17.4624C0 18.1778 0.284211 18.864 0.790109 19.3699C1.29601 19.8758 1.98215 20.16 2.6976 20.16H17.4624C18.1778 20.16 18.864 19.8758 19.3699 19.3699C19.8758 18.864 20.16 18.1778 20.16 17.4624V4.6176C20.16 3.90215 19.8758 3.21601 19.3699 2.71011C18.864 2.20421 18.1778 1.92 17.4624 1.92ZM2.6976 2.88H17.4624C17.9232 2.88 18.3652 3.06307 18.6911 3.38893C19.0169 3.71479 19.2 4.15676 19.2 4.6176V5.76H0.96V4.6176C0.96 4.15676 1.14307 3.71479 1.46893 3.38893C1.79479 3.06307 2.23676 2.88 2.6976 2.88ZM17.4624 19.2H2.6976C2.23676 19.2 1.79479 19.0169 1.46893 18.6911C1.14307 18.3652 0.96 17.9232 0.96 17.4624V6.72H19.2V17.4624C19.2 17.9232 19.0169 18.3652 18.6911 18.6911C18.3652 19.0169 17.9232 19.2 17.4624 19.2Z" fill="white"/>
</svg>
