<svg width="24" height="24" viewBox="0 0 24 24" fill="none" xmlns="http://www.w3.org/2000/svg">
<rect width="24" height="24" rx="4" fill="white" fill-opacity="0.12"/>
<rect x="0.25" y="0.25" width="23.5" height="23.5" rx="3.75" stroke="white" stroke-opacity="0.5" stroke-width="0.5"/>
<path d="M17.25 8.25C17.0511 8.25 16.8603 8.32902 16.7197 8.46967C16.579 8.61032 16.5 8.80109 16.5 9V17.3933C16.4785 17.7725 16.308 18.1279 16.0256 18.382C15.7433 18.6362 15.3719 18.7684 14.9925 18.75H9.0075C8.62807 18.7684 8.25674 18.6362 7.97438 18.382C7.69202 18.1279 7.52151 17.7725 7.5 17.3933V9C7.5 8.80109 7.42098 8.61032 7.28033 8.46967C7.13968 8.32902 6.94891 8.25 6.75 8.25C6.55109 8.25 6.36032 8.32902 6.21967 8.46967C6.07902 8.61032 6 8.80109 6 9V17.3933C6.02141 18.1704 6.34994 18.9074 6.91364 19.4429C7.47733 19.9783 8.23025 20.2686 9.0075 20.25H14.9925C15.7697 20.2686 16.5227 19.9783 17.0864 19.4429C17.6501 18.9074 17.9786 18.1704 18 17.3933V9C18 8.80109 17.921 8.61032 17.7803 8.46967C17.6397 8.32902 17.4489 8.25 17.25 8.25ZM18 6H15V4.5C15 4.30109 14.921 4.11032 14.7803 3.96967C14.6397 3.82902 14.4489 3.75 14.25 3.75H9.75C9.55109 3.75 9.36032 3.82902 9.21967 3.96967C9.07902 4.11032 9 4.30109 9 4.5V6H6C5.80109 6 5.61032 6.07902 5.46967 6.21967C5.32902 6.36032 5.25 6.55109 5.25 6.75C5.25 6.94891 5.32902 7.13968 5.46967 7.28033C5.61032 7.42098 5.80109 7.5 6 7.5H18C18.1989 7.5 18.3897 7.42098 18.5303 7.28033C18.671 7.13968 18.75 6.94891 18.75 6.75C18.75 6.55109 18.671 6.36032 18.5303 6.21967C18.3897 6.07902 18.1989 6 18 6ZM10.5 6V5.25H13.5V6H10.5Z" fill="white"/>
<path d="M11.25 15.75V10.5C11.25 10.3011 11.171 10.1103 11.0303 9.96967C10.8897 9.82902 10.6989 9.75 10.5 9.75C10.3011 9.75 10.1103 9.82902 9.96967 9.96967C9.82902 10.1103 9.75 10.3011 9.75 10.5V15.75C9.75 15.9489 9.82902 16.1397 9.96967 16.2803C10.1103 16.421 10.3011 16.5 10.5 16.5C10.6989 16.5 10.8897 16.421 11.0303 16.2803C11.171 16.1397 11.25 15.9489 11.25 15.75ZM14.25 15.75V10.5C14.25 10.3011 14.171 10.1103 14.0303 9.96967C13.8897 9.82902 13.6989 9.75 13.5 9.75C13.3011 9.75 13.1103 9.82902 12.9697 9.96967C12.829 10.1103 12.75 10.3011 12.75 10.5V15.75C12.75 15.9489 12.829 16.1397 12.9697 16.2803C13.1103 16.421 13.3011 16.5 13.5 16.5C13.6989 16.5 13.8897 16.421 14.0303 16.2803C14.171 16.1397 14.25 15.9489 14.25 15.75Z" fill="white"/>
</svg>
