<svg width="24" height="24" viewBox="0 0 24 24" fill="none" xmlns="http://www.w3.org/2000/svg">
<path fill-rule="evenodd" clip-rule="evenodd" d="M12 5.6C11.1514 5.6 10.3374 5.93714 9.73731 6.53726C9.13719 7.13737 8.80005 7.95131 8.80005 8.8C8.80005 9.64869 9.13719 10.4626 9.73731 11.0627C10.3374 11.6629 11.1514 12 12 12C12.8487 12 13.6627 11.6629 14.2628 11.0627C14.8629 10.4626 15.2 9.64869 15.2 8.8C15.2 7.95131 14.8629 7.13737 14.2628 6.53726C13.6627 5.93714 12.8487 5.6 12 5.6ZM7.20005 8.8C7.20005 7.52696 7.70576 6.30606 8.60594 5.40589C9.50611 4.50571 10.727 4 12 4C13.2731 4 14.494 4.50571 15.3942 5.40589C16.2943 6.30606 16.8 7.52696 16.8 8.8C16.8 10.073 16.2943 11.2939 15.3942 12.1941C14.494 13.0943 13.2731 13.6 12 13.6C10.727 13.6 9.50611 13.0943 8.60594 12.1941C7.70576 11.2939 7.20005 10.073 7.20005 8.8ZM7.05045 15.6936C8.35445 14.8776 10.1064 14.4 12 14.4C13.8936 14.4 15.6456 14.8784 16.9496 15.6936C18.2424 16.5016 19.2 17.72 19.2 19.2C19.2 19.4122 19.1158 19.6157 18.9657 19.7657C18.8157 19.9157 18.6122 20 18.4 20C18.1879 20 17.9844 19.9157 17.8344 19.7657C17.6843 19.6157 17.6 19.4122 17.6 19.2C17.6 18.4712 17.1248 17.6896 16.1016 17.0496C15.0896 16.4184 13.6416 16 12 16C10.3584 16 8.91045 16.4176 7.89845 17.0504C6.87445 17.6888 6.40005 18.4704 6.40005 19.2C6.40005 19.4122 6.31576 19.6157 6.16573 19.7657C6.0157 19.9157 5.81222 20 5.60005 20C5.38788 20 5.18439 19.9157 5.03436 19.7657C4.88433 19.6157 4.80005 19.4122 4.80005 19.2C4.80005 17.72 5.75765 16.5016 7.05045 15.6936Z" fill="white"/>
</svg>
