<svg width="36" height="36" viewBox="0 0 36 36" fill="none" xmlns="http://www.w3.org/2000/svg">
<rect width="36" height="36" rx="10.5" fill="white" fill-opacity="0.2"/>
<rect x="0.25" y="0.25" width="35.5" height="35.5" rx="10.25" stroke="white" stroke-opacity="0.5" stroke-width="0.5"/>
<path d="M21.0664 13.7013C21.0664 13.8732 21.0547 14.045 21.0332 14.215C21.043 14.1466 21.0527 14.0763 21.0605 14.0079C21.0137 14.3478 20.9238 14.6778 20.791 14.9943C20.8164 14.9318 20.8437 14.8693 20.8691 14.8068C20.7383 15.1153 20.5683 15.4044 20.3633 15.6681L20.4863 15.5099C20.2871 15.7657 20.0566 15.9943 19.8027 16.1935L19.9609 16.0704C19.6953 16.2755 19.4062 16.4454 19.0996 16.5763C19.1621 16.5509 19.2246 16.5236 19.2871 16.4982C18.9707 16.631 18.6406 16.7208 18.3008 16.7677C18.3691 16.7579 18.4394 16.7482 18.5078 16.7403C18.166 16.7853 17.8203 16.7853 17.4785 16.7403C17.5469 16.7501 17.6172 16.7599 17.6855 16.7677C17.3457 16.7208 17.0156 16.631 16.6992 16.4982C16.7617 16.5236 16.8242 16.5509 16.8867 16.5763C16.5781 16.4454 16.289 16.2755 16.0254 16.0704L16.1836 16.1935C15.9277 15.9943 15.6992 15.7638 15.5 15.5099L15.623 15.6681C15.418 15.4025 15.248 15.1134 15.1172 14.8068C15.1426 14.8693 15.1699 14.9318 15.1953 14.9943C15.0625 14.6778 14.9726 14.3478 14.9258 14.0079C14.9355 14.0763 14.9453 14.1466 14.9531 14.215C14.9082 13.8732 14.9082 13.5275 14.9531 13.1857C14.9433 13.254 14.9336 13.3243 14.9258 13.3927C14.9726 13.0528 15.0625 12.7228 15.1953 12.4064C15.1699 12.4689 15.1426 12.5314 15.1172 12.5939C15.248 12.2853 15.418 11.9962 15.623 11.7325L15.5 11.8907C15.6992 11.6349 15.9297 11.4064 16.1836 11.2071L16.0254 11.3302C16.291 11.1251 16.5801 10.9552 16.8867 10.8243C16.8242 10.8497 16.7617 10.8771 16.6992 10.9025C17.0156 10.7696 17.3457 10.6798 17.6855 10.6329C17.6172 10.6427 17.5469 10.6525 17.4785 10.6603C17.8203 10.6153 18.166 10.6153 18.5078 10.6603C18.4394 10.6505 18.3691 10.6407 18.3008 10.6329C18.6406 10.6798 18.9707 10.7696 19.2871 10.9025C19.2246 10.8771 19.1621 10.8497 19.0996 10.8243C19.4082 10.9552 19.6972 11.1251 19.9609 11.3302L19.8027 11.2071C20.0586 11.4064 20.2871 11.6368 20.4863 11.8907L20.3633 11.7325C20.5683 11.9982 20.7383 12.2872 20.8691 12.5939C20.8437 12.5314 20.8164 12.4689 20.791 12.4064C20.9238 12.7228 21.0137 13.0528 21.0605 13.3927C21.0508 13.3243 21.041 13.254 21.0332 13.1857C21.0547 13.3575 21.0664 13.5294 21.0664 13.7013C21.0683 14.1095 21.4238 14.5021 21.8476 14.4825C22.2695 14.463 22.6308 14.1388 22.6289 13.7013C22.625 12.7736 22.3476 11.8243 21.8047 11.0665C21.6543 10.8575 21.4941 10.6525 21.3144 10.4669C21.1347 10.2814 20.9336 10.1193 20.7285 9.96301C20.3652 9.68761 19.959 9.48449 19.5312 9.32824C17.7715 8.6798 15.6465 9.25402 14.4551 10.7052C14.2949 10.9005 14.1406 11.1056 14.0097 11.3224C13.8769 11.5431 13.7734 11.7775 13.6758 12.0157C13.4941 12.4571 13.4023 12.9259 13.3672 13.4005C13.2949 14.3321 13.539 15.3028 14.0234 16.0997C14.4922 16.8693 15.1992 17.5275 16.0254 17.8966C16.2617 18.0021 16.5019 18.0997 16.75 18.17C17.0058 18.2403 17.2676 18.2794 17.5293 18.3107C18.0019 18.3673 18.4824 18.3282 18.9492 18.2364C20.7558 17.879 22.2715 16.3263 22.5547 14.5021C22.5957 14.2364 22.6269 13.9708 22.6289 13.7013C22.6308 13.2931 22.2676 12.9005 21.8476 12.92C21.4238 12.9376 21.0683 13.2618 21.0664 13.7013Z" fill="white"/>
<path d="M12.3457 17.1916C11.5625 17.8009 10.9922 18.6291 10.6289 19.5451C10.3672 20.2052 10.2676 20.9201 10.2676 21.6271V24.465C10.2676 24.5822 10.2637 24.6994 10.2734 24.8166C10.3242 25.3849 10.5449 25.9279 10.9687 26.3224C11.4238 26.7482 12.0019 26.9533 12.6191 26.9533H23.125C23.2539 26.9533 23.3847 26.9572 23.5136 26.9513C24.084 26.9259 24.6211 26.7033 25.0332 26.3048C25.4453 25.9064 25.6601 25.3791 25.7109 24.8166C25.7402 24.4865 25.7168 24.1466 25.7168 23.8166V22.1662C25.7168 21.7814 25.7304 21.3908 25.6914 21.008C25.5879 20.0099 25.2519 19.0412 24.6426 18.2365C24.3535 17.8556 24.039 17.506 23.6621 17.2091C23.4922 17.0763 23.3359 16.9806 23.1094 16.9806C22.9179 16.9806 22.6894 17.0666 22.5566 17.2091C22.4199 17.3576 22.3183 17.5529 22.3281 17.7619C22.3359 17.9552 22.3984 18.1896 22.5566 18.3146C22.8711 18.5607 23.1523 18.8459 23.3984 19.1603L23.2754 19.0021C23.5254 19.3283 23.7344 19.6857 23.8945 20.0646C23.8691 20.0021 23.8418 19.9396 23.8164 19.8771C23.9746 20.258 24.082 20.6545 24.1406 21.0627C24.1308 20.9943 24.1211 20.924 24.1133 20.8556C24.1816 21.3634 24.1582 21.8849 24.1582 22.3966V24.3009C24.1582 24.4904 24.1679 24.6838 24.1465 24.8713C24.1562 24.8029 24.166 24.7326 24.1738 24.6642C24.1562 24.7951 24.123 24.9201 24.0742 25.0431C24.0996 24.9806 24.1269 24.9181 24.1523 24.8556C24.1015 24.9748 24.039 25.0841 23.9609 25.1877L24.084 25.0295C24 25.1369 23.9043 25.2326 23.7969 25.3166L23.9551 25.1935C23.8515 25.2697 23.7422 25.3341 23.623 25.3849C23.6855 25.3595 23.748 25.3322 23.8105 25.3068C23.6875 25.3556 23.5625 25.3888 23.4316 25.4064C23.5 25.3966 23.5703 25.3869 23.6387 25.3791C23.4922 25.3966 23.3418 25.3908 23.1933 25.3908H13.8359C13.4082 25.3908 12.9785 25.3927 12.5508 25.3908C12.4844 25.3908 12.4199 25.3869 12.3535 25.3791C12.4219 25.3888 12.4922 25.3986 12.5605 25.4064C12.4297 25.3888 12.3047 25.3556 12.1816 25.3068C12.2441 25.3322 12.3066 25.3595 12.3691 25.3849C12.25 25.3341 12.1406 25.2716 12.0371 25.1935L12.1953 25.3166C12.0879 25.2326 11.9922 25.1369 11.9082 25.0295L12.0312 25.1877C11.9551 25.0841 11.8906 24.9748 11.8398 24.8556C11.8652 24.9181 11.8926 24.9806 11.9179 25.0431C11.8691 24.9201 11.8359 24.7951 11.8183 24.6642C11.8281 24.7326 11.8379 24.8029 11.8457 24.8713C11.8261 24.7111 11.834 24.549 11.834 24.3888V21.7209C11.834 21.4318 11.8398 21.1427 11.8789 20.8556C11.8691 20.924 11.8594 20.9943 11.8515 21.0627C11.9082 20.6545 12.0176 20.258 12.1758 19.8771C12.1504 19.9396 12.123 20.0021 12.0976 20.0646C12.2578 19.6857 12.4668 19.3283 12.7168 19.0021L12.5937 19.1603C12.8457 18.8361 13.1347 18.547 13.457 18.297C13.6035 18.1838 13.6855 17.9201 13.6855 17.7443C13.6855 17.5529 13.5996 17.3244 13.457 17.1916C13.3086 17.0548 13.1133 16.9533 12.9043 16.9631C12.8359 16.9728 12.7656 16.9826 12.6972 16.9904C12.5586 17.0275 12.4433 17.0939 12.3457 17.1916Z" fill="white"/>
</svg>
