<svg width="24" height="24" viewBox="0 0 24 24" fill="none" xmlns="http://www.w3.org/2000/svg">
<path d="M19.0538 18.9089H4.94719C4.61482 18.909 4.29086 18.8045 4.02122 18.6102C3.75158 18.4159 3.54994 18.1416 3.44488 17.8263C3.33982 17.511 3.33667 17.1706 3.43588 16.8534C3.53509 16.5361 3.73162 16.2582 3.99762 16.0589L4.70882 15.5256C4.9765 15.3256 5.15608 15.0294 5.20973 14.6996L6.1023 9.28284C6.32036 7.87455 7.0351 6.59076 8.1173 5.66358C9.19949 4.7364 10.5777 4.22702 12.0028 4.22754C13.4279 4.22806 14.8057 4.73845 15.8872 5.66642C16.9687 6.5944 17.6825 7.87871 17.8996 9.28716L18.7913 14.6996C18.8449 15.0294 19.0245 15.3256 19.2922 15.5256L20.0034 16.0589C20.2694 16.2582 20.466 16.5362 20.5652 16.8535C20.6644 17.1707 20.6612 17.5111 20.5561 17.8265C20.4509 18.1418 20.2492 18.4161 19.9795 18.6104C19.7098 18.8047 19.3862 18.9091 19.0538 18.9089ZM12.0005 5.09075C10.7796 5.08487 9.59743 5.51919 8.6707 6.3141C7.74398 7.10901 7.13477 8.21127 6.95471 9.41886L6.06171 14.8399C5.97216 15.3894 5.67293 15.8828 5.227 16.2161L4.51537 16.7498C4.39462 16.8405 4.30544 16.9669 4.26046 17.111C4.21547 17.2552 4.21696 17.4098 4.26472 17.5531C4.31247 17.6963 4.40407 17.821 4.52654 17.9093C4.64902 17.9976 4.79618 18.0452 4.94719 18.0453H19.0534C19.2045 18.0455 19.3519 17.9981 19.4746 17.9098C19.5972 17.8215 19.689 17.6968 19.7367 17.5534C19.7845 17.41 19.786 17.2552 19.7408 17.111C19.6957 16.9667 19.6062 16.8404 19.4852 16.7498L18.7736 16.2161C18.3276 15.8828 18.0284 15.3894 17.9389 14.8399L17.0459 9.42318C16.8666 8.2151 16.2579 7.1121 15.3314 6.31637C14.4049 5.52065 13.2227 5.08552 12.0014 5.09075H12.0005Z" fill="white"/>
<path d="M13.2966 5.24636C13.1821 5.24636 13.0722 5.20087 12.9912 5.11989C12.9103 5.03891 12.8648 4.92907 12.8648 4.81455V4.22727C12.8648 3.99822 12.7738 3.77855 12.6118 3.61659C12.4498 3.45463 12.2302 3.36364 12.0011 3.36364C11.7721 3.36364 11.5524 3.45463 11.3904 3.61659C11.2285 3.77855 11.1375 3.99822 11.1375 4.22727V4.81455C11.1375 4.92907 11.092 5.03891 11.011 5.11989C10.93 5.20087 10.8202 5.24636 10.7057 5.24636C10.5911 5.24636 10.4813 5.20087 10.4003 5.11989C10.3193 5.03891 10.2738 4.92907 10.2738 4.81455V4.22727C10.2738 3.76917 10.4558 3.32983 10.7798 3.00591C11.1037 2.68198 11.543 2.5 12.0011 2.5C12.4592 2.5 12.8986 2.68198 13.2225 3.00591C13.5464 3.32983 13.7284 3.76917 13.7284 4.22727V4.81455C13.7284 4.92907 13.6829 5.03891 13.6019 5.11989C13.5209 5.20087 13.4111 5.24636 13.2966 5.24636ZM12.0011 21.5C11.1997 21.4991 10.4314 21.1803 9.86474 20.6137C9.29807 20.047 8.97931 19.2787 8.97839 18.4773C8.97839 18.3627 9.02389 18.2529 9.10487 18.1719C9.18585 18.0909 9.29569 18.0455 9.41021 18.0455C9.52474 18.0455 9.63457 18.0909 9.71555 18.1719C9.79654 18.2529 9.84203 18.3627 9.84203 18.4773C9.84203 19.0499 10.0695 19.5991 10.4744 20.004C10.8793 20.4089 11.4285 20.6364 12.0011 20.6364C12.5737 20.6364 13.1229 20.4089 13.5278 20.004C13.9327 19.5991 14.1602 19.0499 14.1602 18.4773C14.1602 18.3627 14.2057 18.2529 14.2867 18.1719C14.3677 18.0909 14.4775 18.0455 14.592 18.0455C14.7066 18.0455 14.8164 18.0909 14.8974 18.1719C14.9784 18.2529 15.0238 18.3627 15.0238 18.4773C15.0229 19.2787 14.7042 20.047 14.1375 20.6137C13.5708 21.1803 12.8025 21.4991 12.0011 21.5Z" fill="white"/>
</svg>
