<svg width="24" height="24" viewBox="0 0 24 24" fill="none" xmlns="http://www.w3.org/2000/svg">
<path d="M19 2H13C12.7348 2 12.4804 2.10536 12.2929 2.29289C12.1054 2.48043 12 2.73478 12 3C12 3.26522 12.1054 3.51957 12.2929 3.70711C12.4804 3.89464 12.7348 4 13 4H19C19.2652 4 19.5196 4.10536 19.7071 4.29289C19.8946 4.48043 20 4.73478 20 5V19C20 19.2652 19.8946 19.5196 19.7071 19.7071C19.5196 19.8946 19.2652 20 19 20H13C12.7348 20 12.4804 20.1054 12.2929 20.2929C12.1054 20.4804 12 20.7348 12 21C12 21.2652 12.1054 21.5196 12.2929 21.7071C12.4804 21.8946 12.7348 22 13 22H19C19.7956 22 20.5587 21.6839 21.1213 21.1213C21.6839 20.5587 22 19.7956 22 19V5C22 4.20435 21.6839 3.44129 21.1213 2.87868C20.5587 2.31607 19.7956 2 19 2Z" fill="white"/>
<path d="M7.70697 15.2926C7.80248 15.3848 7.87866 15.4952 7.93107 15.6172C7.98348 15.7392 8.01107 15.8704 8.01222 16.0032C8.01337 16.136 7.98807 16.2676 7.93779 16.3905C7.88751 16.5134 7.81326 16.6251 7.71937 16.719C7.62547 16.8129 7.51382 16.8871 7.39092 16.9374C7.26803 16.9877 7.13635 17.013 7.00357 17.0118C6.87079 17.0107 6.73957 16.9831 6.61757 16.9307C6.49556 16.8783 6.38522 16.8021 6.29297 16.7066L2.29297 12.7066C2.1055 12.5191 2.00018 12.2648 2.00018 11.9996C2.00018 11.7344 2.1055 11.4801 2.29297 11.2926L6.29297 7.29259C6.38522 7.19708 6.49556 7.1209 6.61757 7.06849C6.73957 7.01608 6.87079 6.9885 7.00357 6.98734C7.13635 6.98619 7.26803 7.01149 7.39092 7.06177C7.51382 7.11205 7.62547 7.18631 7.71937 7.2802C7.81326 7.37409 7.88751 7.48574 7.93779 7.60864C7.98807 7.73154 8.01337 7.86321 8.01222 7.99599C8.01107 8.12877 7.98348 8.25999 7.93107 8.382C7.87866 8.504 7.80248 8.61435 7.70697 8.70659L5.41397 10.9996H17C17.2652 10.9996 17.5195 11.1049 17.7071 11.2925C17.8946 11.48 18 11.7344 18 11.9996C18 12.2648 17.8946 12.5192 17.7071 12.7067C17.5195 12.8942 17.2652 12.9996 17 12.9996H5.41397L7.70697 15.2926Z" fill="white"/>
</svg>
