<svg width="24" height="24" viewBox="0 0 24 24" fill="none" xmlns="http://www.w3.org/2000/svg">
<path d="M11.9927 2C8.90507 2 6.39307 4.512 6.39307 7.59966V10.3415C6.39307 10.5283 6.54459 10.6797 6.7313 10.6797H8.60851C8.69818 10.6797 8.78418 10.644 8.84759 10.5806C8.91099 10.5172 8.94662 10.4312 8.94663 10.3415V7.59966C8.94663 5.92007 10.3131 4.5536 11.9927 4.5536C13.6722 4.5536 15.0387 5.92007 15.0387 7.59966V10.3415C15.0387 10.5283 15.1902 10.6797 15.377 10.6797H17.2542C17.3439 10.6797 17.4299 10.644 17.4933 10.5806C17.5567 10.5172 17.5923 10.4312 17.5923 10.3415V7.59966C17.5924 4.512 15.0803 2 11.9927 2ZM16.9161 10.0034H15.715V7.59966C15.715 5.54719 14.0452 3.87736 11.9928 3.87736C9.94033 3.87736 8.27051 5.54719 8.27051 7.59966V10.0034H7.06943V7.59966C7.06943 4.88489 9.27799 2.67628 11.9927 2.67628C14.7075 2.67628 16.9161 4.88489 16.9161 7.59966V10.0034Z" fill="white"/>
<path d="M18.0329 10.0039H5.95264C5.15167 10.0039 4.5 10.6556 4.5 11.4565V20.5476C4.5 21.3486 5.15167 22.0003 5.95264 22.0003H18.0329C18.8339 22.0003 19.4855 21.3486 19.4855 20.5476V11.4565C19.4855 10.6556 18.8339 10.0039 18.0329 10.0039ZM18.8093 20.5476C18.8093 20.9757 18.461 21.324 18.0329 21.324H5.95264C5.52452 21.324 5.17624 20.9757 5.17624 20.5476V11.4565C5.17624 11.0284 5.52452 10.6801 5.95264 10.6801H18.0329C18.461 10.6801 18.8093 11.0284 18.8093 11.4565V20.5476Z" fill="white"/>
<path d="M13.1299 16.4443C13.5249 16.1114 13.7548 15.6248 13.7548 15.1019C13.7548 14.1303 12.9643 13.3398 11.9927 13.3398C11.0211 13.3398 10.2307 14.1303 10.2307 15.1019C10.2307 15.6248 10.4605 16.1114 10.8556 16.4443L10.4755 18.2553C10.4652 18.3046 10.466 18.3555 10.4779 18.4044C10.4897 18.4532 10.5123 18.4989 10.544 18.5379C10.5757 18.577 10.6157 18.6085 10.6611 18.6301C10.7065 18.6517 10.7562 18.663 10.8065 18.663H13.179C13.2293 18.663 13.279 18.6518 13.3244 18.6302C13.3698 18.6085 13.4098 18.577 13.4415 18.538C13.4732 18.4989 13.4958 18.4533 13.5076 18.4044C13.5194 18.3555 13.5202 18.3046 13.5099 18.2554L13.1299 16.4443ZM12.5729 16.0161C12.5149 16.053 12.4695 16.1068 12.4428 16.1701C12.4161 16.2335 12.4094 16.3035 12.4235 16.3708L12.7626 17.9867H11.2229L11.5621 16.3709C11.5762 16.3036 11.5695 16.2336 11.5428 16.1702C11.5161 16.1069 11.4707 16.0531 11.4127 16.0162C11.096 15.8147 10.9069 15.4728 10.9069 15.1019C10.9069 14.5032 11.394 14.0162 11.9927 14.0162C12.5914 14.0162 13.0785 14.5032 13.0785 15.1019C13.0786 15.4729 12.8895 15.8147 12.5729 16.0161Z" fill="white"/>
</svg>
