<svg width="20" height="20" viewBox="0 0 20 20" fill="none" xmlns="http://www.w3.org/2000/svg">
<path d="M13.3333 5.62484H6.66667C6.3904 5.62484 6.12545 5.51509 5.9301 5.31974C5.73475 5.12439 5.625 4.85944 5.625 4.58317V2.08317C5.625 1.8069 5.73475 1.54195 5.9301 1.3466C6.12545 1.15125 6.3904 1.0415 6.66667 1.0415H13.3333C13.6096 1.0415 13.8746 1.15125 14.0699 1.3466C14.2653 1.54195 14.375 1.8069 14.375 2.08317V4.58317C14.375 4.85944 14.2653 5.12439 14.0699 5.31974C13.8746 5.51509 13.6096 5.62484 13.3333 5.62484ZM6.875 4.37484H13.125V2.2915H6.875V4.37484Z" fill="white"/>
<path d="M15.8333 18.958H4.16665C3.78055 18.9558 3.41088 18.8015 3.13787 18.5285C2.86485 18.2554 2.7105 17.8858 2.70831 17.4997V4.16634C2.7105 3.78024 2.86485 3.41058 3.13787 3.13756C3.41088 2.86454 3.78055 2.7102 4.16665 2.70801H6.24998C6.41574 2.70801 6.57471 2.77386 6.69192 2.89107C6.80913 3.00828 6.87498 3.16725 6.87498 3.33301C6.87498 3.49877 6.80913 3.65774 6.69192 3.77495C6.57471 3.89216 6.41574 3.95801 6.24998 3.95801H4.16665C4.11139 3.95801 4.0584 3.97996 4.01933 4.01903C3.98026 4.0581 3.95831 4.11109 3.95831 4.16634V17.4997C3.95831 17.5549 3.98026 17.6079 4.01933 17.647C4.0584 17.6861 4.11139 17.708 4.16665 17.708H15.8333C15.8886 17.708 15.9416 17.6861 15.9806 17.647C16.0197 17.6079 16.0416 17.5549 16.0416 17.4997V4.16634C16.0416 4.11109 16.0197 4.0581 15.9806 4.01903C15.9416 3.97996 15.8886 3.95801 15.8333 3.95801H13.75C13.5842 3.95801 13.4252 3.89216 13.308 3.77495C13.1908 3.65774 13.125 3.49877 13.125 3.33301C13.125 3.16725 13.1908 3.00828 13.308 2.89107C13.4252 2.77386 13.5842 2.70801 13.75 2.70801H15.8333C16.2194 2.7102 16.5891 2.86454 16.8621 3.13756C17.1351 3.41058 17.2895 3.78024 17.2916 4.16634V17.4997C17.2895 17.8858 17.1351 18.2554 16.8621 18.5285C16.5891 18.8015 16.2194 18.9558 15.8333 18.958Z" fill="white"/>
<path d="M9.37501 13.6749C9.22109 13.6768 9.0722 13.6202 8.95834 13.5166L7.08334 11.8499C7.02199 11.7953 6.97202 11.729 6.93629 11.655C6.90057 11.581 6.87979 11.5007 6.87514 11.4186C6.8705 11.3366 6.88208 11.2544 6.90923 11.1769C6.93637 11.0993 6.97855 11.0279 7.03334 10.9666C7.14493 10.8446 7.29978 10.7711 7.46483 10.7618C7.62988 10.7524 7.79204 10.808 7.91668 10.9166L9.33334 12.1833L12.0417 9.30827C12.1589 9.19123 12.3177 9.12549 12.4833 9.12549C12.649 9.12549 12.8078 9.19123 12.925 9.30827C13.0421 9.42546 13.1078 9.58431 13.1078 9.74994C13.1078 9.91556 13.0421 10.0744 12.925 10.1916L9.80001 13.5249C9.68076 13.624 9.53003 13.6772 9.37501 13.6749Z" fill="white"/>
</svg>
