<svg width="12" height="12" viewBox="0 0 12 12" fill="none" xmlns="http://www.w3.org/2000/svg">
<g clip-path="url(#clip0_110_3274)">
<path d="M0 7.38353C0 3.95335 2.7807 1.17268 6.21084 1.17268H7.5V0.352252C7.5 0.0478689 7.86052 -0.112678 8.08673 0.090947L10.4305 2.20032C10.5857 2.33999 10.5857 2.58329 10.4305 2.72295L8.08673 4.83233C7.86052 5.03596 7.5 4.87538 7.5 4.57103V3.75081H6.30101C3.83623 3.75081 1.61513 5.23827 0.676641 7.51738C0.530016 7.87346 0 7.76863 0 7.38353ZM12 4.61649C12 8.04664 9.21931 10.8273 5.78916 10.8273H4.5V11.6477C4.5 11.9521 4.13948 12.1127 3.91327 11.909L1.56952 9.79967C1.41434 9.66001 1.41434 9.41671 1.56952 9.27704L3.91327 7.16767C4.13951 6.96404 4.5 7.12461 4.5 7.42897V8.24919H5.69899C8.16377 8.24919 10.3849 6.76173 11.3234 4.48262C11.47 4.12656 12 4.23139 12 4.61649Z" fill="white"/>
</g>
<defs>
<clipPath id="clip0_110_3274">
<rect width="12" height="12" fill="white"/>
</clipPath>
</defs>
</svg>
