<svg width="33" height="31" viewBox="0 0 33 31" fill="none" xmlns="http://www.w3.org/2000/svg">
<path d="M32.538 11.0516V24.5816C32.6365 25.4261 32.5426 26.2821 32.2634 27.0852C31.9841 27.8883 31.5267 28.6178 30.9255 29.2191C30.3242 29.8203 29.5947 30.2777 28.7916 30.557C27.9884 30.8362 27.1325 30.9301 26.288 30.8316H6.28796C5.44339 30.9301 4.58748 30.8362 3.78435 30.557C2.98122 30.2777 2.2517 29.8203 1.65045 29.2191C1.04921 28.6178 0.591819 27.8883 0.312565 27.0852C0.0333111 26.2821 -0.0605686 25.4261 0.0379597 24.5816V7.91491C-0.0605686 7.07035 0.0333111 6.21443 0.312565 5.41131C0.591819 4.60818 1.04921 3.87866 1.65045 3.27741C2.2517 2.67616 2.98122 2.21877 3.78435 1.93952C4.58748 1.66026 5.44339 1.56638 6.28796 1.66491H20.9546C21.0284 1.66684 21.1008 1.68507 21.1667 1.71828C21.2325 1.7515 21.2902 1.79888 21.3356 1.85702C21.381 1.91517 21.413 1.98264 21.4293 2.05461C21.4455 2.12657 21.4456 2.20123 21.4296 2.27325C21.0364 4.22063 21.4319 6.24448 22.5293 7.90057C23.6267 9.55667 25.3363 10.7097 27.283 11.1066C28.8237 11.4146 30.4222 11.231 31.853 10.5816C31.9292 10.5512 32.0118 10.5401 32.0934 10.5492C32.1751 10.5583 32.2532 10.5873 32.3209 10.6338C32.3886 10.6803 32.4438 10.7427 32.4817 10.8155C32.5195 10.8884 32.5389 10.9695 32.538 11.0516Z" fill="#B35006"/>
<path d="M29.8912 19.8515L22.4712 12.4315C22.1569 12.1185 21.7314 11.9427 21.2878 11.9427C20.8443 11.9427 20.4188 12.1185 20.1045 12.4315L11.8712 20.6649C11.7154 20.8176 11.506 20.9031 11.2878 20.9031C11.0697 20.9031 10.8603 20.8176 10.7045 20.6649L9.13784 19.0982C8.82359 18.7851 8.39809 18.6094 7.95451 18.6094C7.51093 18.6094 7.08543 18.7851 6.77117 19.0982L2.68451 23.1849C2.59071 23.2786 2.53796 23.4057 2.53784 23.5382V24.5815C2.53784 27.2149 3.65451 28.3315 6.28784 28.3315H26.2878C28.9212 28.3315 30.0378 27.2149 30.0378 24.5815V20.2049C30.0377 20.0723 29.985 19.9452 29.8912 19.8515ZM9.62117 13.3315C9.34759 13.3325 9.07649 13.2796 8.82335 13.1758C8.57021 13.072 8.33999 12.9194 8.14584 12.7267C7.75373 12.3374 7.53233 11.8082 7.53034 11.2557C7.52835 10.7032 7.74594 10.1725 8.13523 9.78038C8.52453 9.38827 9.05364 9.16687 9.60618 9.16488H9.62117C10.1737 9.16488 10.7036 9.38437 11.0943 9.77507C11.485 10.1658 11.7045 10.6957 11.7045 11.2482C11.7045 11.8007 11.485 12.3307 11.0943 12.7214C10.7036 13.1121 10.1737 13.3315 9.62117 13.3315ZM32.1712 2.86488L29.6712 0.364879C29.4366 0.131202 29.119 0 28.7878 0C28.4567 0 28.1391 0.131202 27.9045 0.364879L25.4045 2.86488C25.1837 3.10184 25.0635 3.41525 25.0692 3.73908C25.0749 4.06292 25.2061 4.37189 25.4351 4.60092C25.6642 4.82994 25.9731 4.96112 26.297 4.96684C26.6208 4.97255 26.9342 4.85235 27.1712 4.63155L27.5378 4.26655V7.91488C27.5378 8.2464 27.6695 8.56434 27.904 8.79876C28.1384 9.03318 28.4563 9.16488 28.7878 9.16488C29.1194 9.16488 29.4373 9.03318 29.6717 8.79876C29.9061 8.56434 30.0378 8.2464 30.0378 7.91488V4.26655L30.4045 4.63155C30.6415 4.85235 30.9549 4.97255 31.2787 4.96684C31.6025 4.96112 31.9115 4.82994 32.1405 4.60092C32.3696 4.37189 32.5008 4.06292 32.5065 3.73908C32.5122 3.41525 32.392 3.10184 32.1712 2.86488Z" fill="white"/>
</svg>
