<svg width="30" height="29" viewBox="0 0 30 29" fill="none" xmlns="http://www.w3.org/2000/svg">
<path d="M27.3533 19.8515L19.9333 12.4315C19.6191 12.1185 19.1936 11.9427 18.75 11.9427C18.3064 11.9427 17.8809 12.1185 17.5667 12.4315L9.33333 20.6649C9.17756 20.8176 8.96813 20.9031 8.75 20.9031C8.53187 20.9031 8.32244 20.8176 8.16667 20.6649L6.6 19.0982C6.28575 18.7851 5.86025 18.6094 5.41667 18.6094C4.97309 18.6094 4.54758 18.7851 4.23333 19.0982L0.146667 23.1849C0.0528718 23.2786 0.000116701 23.4057 0 23.5382V24.5815C0 27.2149 1.11667 28.3315 3.75 28.3315H23.75C26.3833 28.3315 27.5 27.2149 27.5 24.5815V20.2049C27.4999 20.0723 27.4471 19.9452 27.3533 19.8515ZM7.08333 13.3315C6.80975 13.3325 6.53864 13.2796 6.28551 13.1758C6.03237 13.072 5.80215 12.9194 5.608 12.7267C5.21589 12.3374 4.99449 11.8082 4.9925 11.2557C4.99051 10.7032 5.2081 10.1725 5.59739 9.78038C5.98669 9.38827 6.5158 9.16687 7.06833 9.16488H7.08333C7.63587 9.16488 8.16577 9.38437 8.55647 9.77507C8.94717 10.1658 9.16667 10.6957 9.16667 11.2482C9.16667 11.8007 8.94717 12.3307 8.55647 12.7214C8.16577 13.1121 7.63587 13.3315 7.08333 13.3315ZM29.6333 2.86488L27.1333 0.364879C26.8987 0.131202 26.5811 0 26.25 0C25.9189 0 25.6013 0.131202 25.3667 0.364879L22.8667 2.86488C22.6459 3.10184 22.5257 3.41525 22.5314 3.73908C22.5371 4.06292 22.6683 4.37189 22.8973 4.60092C23.1263 4.82994 23.4353 4.96112 23.7591 4.96684C24.083 4.97255 24.3964 4.85235 24.6333 4.63155L25 4.26655V7.91488C25 8.2464 25.1317 8.56434 25.3661 8.79876C25.6005 9.03318 25.9185 9.16488 26.25 9.16488C26.5815 9.16488 26.8995 9.03318 27.1339 8.79876C27.3683 8.56434 27.5 8.2464 27.5 7.91488V4.26655L27.8667 4.63155C28.1036 4.85235 28.417 4.97255 28.7409 4.96684C29.0647 4.96112 29.3737 4.82994 29.6027 4.60092C29.8317 4.37189 29.9629 4.06292 29.9686 3.73908C29.9743 3.41525 29.8541 3.10184 29.6333 2.86488Z" fill="white"/>
</svg>
